v 0.220000 -18.000000 -11.200000
vt 0.000000 0.000000
v 0.220000 18.000000 -11.200000
vt 1.000000 0.000000
v 0.220000 18.000000 11.200000
vt 1.000000 1.000000
v 0.220000 -18.000000 11.200000
vt 0.000000 1.000000
f 1/1 2/2 3/3 4/4
v -0.220000 18.000000 -11.200000
vt 0.020000 0.020000
v -0.220000 -18.000000 -11.200000
vt 0.080000 0.020000
v -0.220000 -18.000000 11.200000
vt 0.080000 0.080000
v -0.220000 18.000000 11.200000
vt 0.020000 0.080000
f 5/5 6/6 7/7 8/8
v -0.220000 -18.000000 -11.200000
vt 0.020000 0.020000
v 0.220000 -18.000000 -11.200000
vt 0.080000 0.020000
v 0.220000 -18.000000 11.200000
vt 0.080000 0.080000
v -0.220000 -18.000000 11.200000
vt 0.020000 0.080000
f 9/9 10/10 11/11 12/12
v 0.220000 18.000000 -11.200000
vt 0.020000 0.020000
v -0.220000 18.000000 -11.200000
vt 0.080000 0.020000
v -0.220000 18.000000 11.200000
vt 0.080000 0.080000
v 0.220000 18.000000 11.200000
vt 0.020000 0.080000
f 13/13 14/14 15/15 16/16
v -0.220000 -18.000000 11.200000
vt 0.020000 0.020000
v 0.220000 -18.000000 11.200000
vt 0.080000 0.020000
v 0.220000 18.000000 11.200000
vt 0.080000 0.080000
v -0.220000 18.000000 11.200000
vt 0.020000 0.080000
f 17/17 18/18 19/19 20/20
v -0.220000 18.000000 -11.200000
vt 0.020000 0.020000
v 0.220000 18.000000 -11.200000
vt 0.080000 0.020000
v 0.220000 -18.000000 -11.200000
vt 0.080000 0.080000
v -0.220000 -18.000000 -11.200000
vt 0.020000 0.080000
f 21/21 22/22 23/23 24/24
