v -1.000000 10.000000 0.000000
vt 0.020000 0.020000
v -1.000000 9.876883 1.564345
vt 0.080000 0.020000
v 1.000000 9.876883 1.564345
vt 0.080000 0.080000
v 1.000000 10.000000 0.000000
vt 0.020000 0.080000
f 1/1 2/2 3/3 4/4
v -1.000000 0.000000 0.000000
vt 0.020000 0.020000
v -1.000000 9.876883 1.564345
vt 0.080000 0.020000
v -1.000000 10.000000 0.000000
vt 0.080000 0.080000
f 5/5 6/6 7/7
v 1.000000 0.000000 0.000000
vt 0.020000 0.020000
v 1.000000 10.000000 0.000000
vt 0.080000 0.020000
v 1.000000 9.876883 1.564345
vt 0.080000 0.080000
f 8/8 9/9 10/10
v -1.000000 9.876883 1.564345
vt 0.020000 0.020000
v -1.000000 9.510565 3.090170
vt 0.080000 0.020000
v 1.000000 9.510565 3.090170
vt 0.080000 0.080000
v 1.000000 9.876883 1.564345
vt 0.020000 0.080000
f 11/11 12/12 13/13 14/14
v -1.000000 0.000000 0.000000
vt 0.020000 0.020000
v -1.000000 9.510565 3.090170
vt 0.080000 0.020000
v -1.000000 9.876883 1.564345
vt 0.080000 0.080000
f 15/15 16/16 17/17
v 1.000000 0.000000 0.000000
vt 0.020000 0.020000
v 1.000000 9.876883 1.564345
vt 0.080000 0.020000
v 1.000000 9.510565 3.090170
vt 0.080000 0.080000
f 18/18 19/19 20/20
v -1.000000 9.510565 3.090170
vt 0.020000 0.020000
v -1.000000 8.910065 4.539905
vt 0.080000 0.020000
v 1.000000 8.910065 4.539905
vt 0.080000 0.080000
v 1.000000 9.510565 3.090170
vt 0.020000 0.080000
f 21/21 22/22 23/23 24/24
v -1.000000 0.000000 0.000000
vt 0.020000 0.020000
v -1.000000 8.910065 4.539905
vt 0.080000 0.020000
v -1.000000 9.510565 3.090170
vt 0.080000 0.080000
f 25/25 26/26 27/27
v 1.000000 0.000000 0.000000
vt 0.020000 0.020000
v 1.000000 9.510565 3.090170
vt 0.080000 0.020000
v 1.000000 8.910065 4.539905
vt 0.080000 0.080000
f 28/28 29/29 30/30
v -1.000000 8.910065 4.539905
vt 0.020000 0.020000
v -1.000000 8.090170 5.877853
vt 0.080000 0.020000
v 1.000000 8.090170 5.877853
vt 0.080000 0.080000
v 1.000000 8.910065 4.539905
vt 0.020000 0.080000
f 31/31 32/32 33/33 34/34
v -1.000000 0.000000 0.000000
vt 0.020000 0.020000
v -1.000000 8.090170 5.877853
vt 0.080000 0.020000
v -1.000000 8.910065 4.539905
vt 0.080000 0.080000
f 35/35 36/36 37/37
v 1.000000 0.000000 0.000000
vt 0.020000 0.020000
v 1.000000 8.910065 4.539905
vt 0.080000 0.020000
v 1.000000 8.090170 5.877853
vt 0.080000 0.080000
f 38/38 39/39 40/40
v -1.000000 8.090170 5.877853
vt 0.020000 0.020000
v -1.000000 7.071068 7.071068
vt 0.080000 0.020000
v 1.000000 7.071068 7.071068
vt 0.080000 0.080000
v 1.000000 8.090170 5.877853
vt 0.020000 0.080000
f 41/41 42/42 43/43 44/44
v -1.000000 0.000000 0.000000
vt 0.020000 0.020000
v -1.000000 7.071068 7.071068
vt 0.080000 0.020000
v -1.000000 8.090170 5.877853
vt 0.080000 0.080000
f 45/45 46/46 47/47
v 1.000000 0.000000 0.000000
vt 0.020000 0.020000
v 1.000000 8.090170 5.877853
vt 0.080000 0.020000
v 1.000000 7.071068 7.071068
vt 0.080000 0.080000
f 48/48 49/49 50/50
v -1.000000 7.071068 7.071068
vt 0.020000 0.020000
v -1.000000 5.877853 8.090170
vt 0.080000 0.020000
v 1.000000 5.877853 8.090170
vt 0.080000 0.080000
v 1.000000 7.071068 7.071068
vt 0.020000 0.080000
f 51/51 52/52 53/53 54/54
v -1.000000 0.000000 0.000000
vt 0.020000 0.020000
v -1.000000 5.877853 8.090170
vt 0.080000 0.020000
v -1.000000 7.071068 7.071068
vt 0.080000 0.080000
f 55/55 56/56 57/57
v 1.000000 0.000000 0.000000
vt 0.020000 0.020000
v 1.000000 7.071068 7.071068
vt 0.080000 0.020000
v 1.000000 5.877853 8.090170
vt 0.080000 0.080000
f 58/58 59/59 60/60
v -1.000000 5.877853 8.090170
vt 0.020000 0.020000
v -1.000000 4.539905 8.910065
vt 0.080000 0.020000
v 1.000000 4.539905 8.910065
vt 0.080000 0.080000
v 1.000000 5.877853 8.090170
vt 0.020000 0.080000
f 61/61 62/62 63/63 64/64
v -1.000000 0.000000 0.000000
vt 0.020000 0.020000
v -1.000000 4.539905 8.910065
vt 0.080000 0.020000
v -1.000000 5.877853 8.090170
vt 0.080000 0.080000
f 65/65 66/66 67/67
v 1.000000 0.000000 0.000000
vt 0.020000 0.020000
v 1.000000 5.877853 8.090170
vt 0.080000 0.020000
v 1.000000 4.539905 8.910065
vt 0.080000 0.080000
f 68/68 69/69 70/70
v -1.000000 4.539905 8.910065
vt 0.020000 0.020000
v -1.000000 3.090170 9.510565
vt 0.080000 0.020000
v 1.000000 3.090170 9.510565
vt 0.080000 0.080000
v 1.000000 4.539905 8.910065
vt 0.020000 0.080000
f 71/71 72/72 73/73 74/74
v -1.000000 0.000000 0.000000
vt 0.020000 0.020000
v -1.000000 3.090170 9.510565
vt 0.080000 0.020000
v -1.000000 4.539905 8.910065
vt 0.080000 0.080000
f 75/75 76/76 77/77
v 1.000000 0.000000 0.000000
vt 0.020000 0.020000
v 1.000000 4.539905 8.910065
vt 0.080000 0.020000
v 1.000000 3.090170 9.510565
vt 0.080000 0.080000
f 78/78 79/79 80/80
v -1.000000 3.090170 9.510565
vt 0.020000 0.020000
v -1.000000 1.564345 9.876883
vt 0.080000 0.020000
v 1.000000 1.564345 9.876883
vt 0.080000 0.080000
v 1.000000 3.090170 9.510565
vt 0.020000 0.080000
f 81/81 82/82 83/83 84/84
v -1.000000 0.000000 0.000000
vt 0.020000 0.020000
v -1.000000 1.564345 9.876883
vt 0.080000 0.020000
v -1.000000 3.090170 9.510565
vt 0.080000 0.080000
f 85/85 86/86 87/87
v 1.000000 0.000000 0.000000
vt 0.020000 0.020000
v 1.000000 3.090170 9.510565
vt 0.080000 0.020000
v 1.000000 1.564345 9.876883
vt 0.080000 0.080000
f 88/88 89/89 90/90
v -1.000000 1.564345 9.876883
vt 0.020000 0.020000
v -1.000000 0.000000 10.000000
vt 0.080000 0.020000
v 1.000000 0.000000 10.000000
vt 0.080000 0.080000
v 1.000000 1.564345 9.876883
vt 0.020000 0.080000
f 91/91 92/92 93/93 94/94
v -1.000000 0.000000 0.000000
vt 0.020000 0.020000
v -1.000000 0.000000 10.000000
vt 0.080000 0.020000
v -1.000000 1.564345 9.876883
vt 0.080000 0.080000
f 95/95 96/96 97/97
v 1.000000 0.000000 0.000000
vt 0.020000 0.020000
v 1.000000 1.564345 9.876883
vt 0.080000 0.020000
v 1.000000 0.000000 10.000000
vt 0.080000 0.080000
f 98/98 99/99 100/100
v -1.000000 0.000000 10.000000
vt 0.020000 0.020000
v -1.000000 -1.564345 9.876883
vt 0.080000 0.020000
v 1.000000 -1.564345 9.876883
vt 0.080000 0.080000
v 1.000000 0.000000 10.000000
vt 0.020000 0.080000
f 101/101 102/102 103/103 104/104
v -1.000000 0.000000 0.000000
vt 0.020000 0.020000
v -1.000000 -1.564345 9.876883
vt 0.080000 0.020000
v -1.000000 0.000000 10.000000
vt 0.080000 0.080000
f 105/105 106/106 107/107
v 1.000000 0.000000 0.000000
vt 0.020000 0.020000
v 1.000000 0.000000 10.000000
vt 0.080000 0.020000
v 1.000000 -1.564345 9.876883
vt 0.080000 0.080000
f 108/108 109/109 110/110
v -1.000000 -1.564345 9.876883
vt 0.020000 0.020000
v -1.000000 -3.090170 9.510565
vt 0.080000 0.020000
v 1.000000 -3.090170 9.510565
vt 0.080000 0.080000
v 1.000000 -1.564345 9.876883
vt 0.020000 0.080000
f 111/111 112/112 113/113 114/114
v -1.000000 0.000000 0.000000
vt 0.020000 0.020000
v -1.000000 -3.090170 9.510565
vt 0.080000 0.020000
v -1.000000 -1.564345 9.876883
vt 0.080000 0.080000
f 115/115 116/116 117/117
v 1.000000 0.000000 0.000000
vt 0.020000 0.020000
v 1.000000 -1.564345 9.876883
vt 0.080000 0.020000
v 1.000000 -3.090170 9.510565
vt 0.080000 0.080000
f 118/118 119/119 120/120
v -1.000000 -3.090170 9.510565
vt 0.020000 0.020000
v -1.000000 -4.539905 8.910065
vt 0.080000 0.020000
v 1.000000 -4.539905 8.910065
vt 0.080000 0.080000
v 1.000000 -3.090170 9.510565
vt 0.020000 0.080000
f 121/121 122/122 123/123 124/124
v -1.000000 0.000000 0.000000
vt 0.020000 0.020000
v -1.000000 -4.539905 8.910065
vt 0.080000 0.020000
v -1.000000 -3.090170 9.510565
vt 0.080000 0.080000
f 125/125 126/126 127/127
v 1.000000 0.000000 0.000000
vt 0.020000 0.020000
v 1.000000 -3.090170 9.510565
vt 0.080000 0.020000
v 1.000000 -4.539905 8.910065
vt 0.080000 0.080000
f 128/128 129/129 130/130
v -1.000000 -4.539905 8.910065
vt 0.020000 0.020000
v -1.000000 -5.877853 8.090170
vt 0.080000 0.020000
v 1.000000 -5.877853 8.090170
vt 0.080000 0.080000
v 1.000000 -4.539905 8.910065
vt 0.020000 0.080000
f 131/131 132/132 133/133 134/134
v -1.000000 0.000000 0.000000
vt 0.020000 0.020000
v -1.000000 -5.877853 8.090170
vt 0.080000 0.020000
v -1.000000 -4.539905 8.910065
vt 0.080000 0.080000
f 135/135 136/136 137/137
v 1.000000 0.000000 0.000000
vt 0.020000 0.020000
v 1.000000 -4.539905 8.910065
vt 0.080000 0.020000
v 1.000000 -5.877853 8.090170
vt 0.080000 0.080000
f 138/138 139/139 140/140
v -1.000000 -5.877853 8.090170
vt 0.020000 0.020000
v -1.000000 -7.071068 7.071068
vt 0.080000 0.020000
v 1.000000 -7.071068 7.071068
vt 0.080000 0.080000
v 1.000000 -5.877853 8.090170
vt 0.020000 0.080000
f 141/141 142/142 143/143 144/144
v -1.000000 0.000000 0.000000
vt 0.020000 0.020000
v -1.000000 -7.071068 7.071068
vt 0.080000 0.020000
v -1.000000 -5.877853 8.090170
vt 0.080000 0.080000
f 145/145 146/146 147/147
v 1.000000 0.000000 0.000000
vt 0.020000 0.020000
v 1.000000 -5.877853 8.090170
vt 0.080000 0.020000
v 1.000000 -7.071068 7.071068
vt 0.080000 0.080000
f 148/148 149/149 150/150
v -1.000000 -7.071068 7.071068
vt 0.020000 0.020000
v -1.000000 -8.090170 5.877853
vt 0.080000 0.020000
v 1.000000 -8.090170 5.877853
vt 0.080000 0.080000
v 1.000000 -7.071068 7.071068
vt 0.020000 0.080000
f 151/151 152/152 153/153 154/154
v -1.000000 0.000000 0.000000
vt 0.020000 0.020000
v -1.000000 -8.090170 5.877853
vt 0.080000 0.020000
v -1.000000 -7.071068 7.071068
vt 0.080000 0.080000
f 155/155 156/156 157/157
v 1.000000 0.000000 0.000000
vt 0.020000 0.020000
v 1.000000 -7.071068 7.071068
vt 0.080000 0.020000
v 1.000000 -8.090170 5.877853
vt 0.080000 0.080000
f 158/158 159/159 160/160
v -1.000000 -8.090170 5.877853
vt 0.020000 0.020000
v -1.000000 -8.910065 4.539905
vt 0.080000 0.020000
v 1.000000 -8.910065 4.539905
vt 0.080000 0.080000
v 1.000000 -8.090170 5.877853
vt 0.020000 0.080000
f 161/161 162/162 163/163 164/164
v -1.000000 0.000000 0.000000
vt 0.020000 0.020000
v -1.000000 -8.910065 4.539905
vt 0.080000 0.020000
v -1.000000 -8.090170 5.877853
vt 0.080000 0.080000
f 165/165 166/166 167/167
v 1.000000 0.000000 0.000000
vt 0.020000 0.020000
v 1.000000 -8.090170 5.877853
vt 0.080000 0.020000
v 1.000000 -8.910065 4.539905
vt 0.080000 0.080000
f 168/168 169/169 170/170
v -1.000000 -8.910065 4.539905
vt 0.020000 0.020000
v -1.000000 -9.510565 3.090170
vt 0.080000 0.020000
v 1.000000 -9.510565 3.090170
vt 0.080000 0.080000
v 1.000000 -8.910065 4.539905
vt 0.020000 0.080000
f 171/171 172/172 173/173 174/174
v -1.000000 0.000000 0.000000
vt 0.020000 0.020000
v -1.000000 -9.510565 3.090170
vt 0.080000 0.020000
v -1.000000 -8.910065 4.539905
vt 0.080000 0.080000
f 175/175 176/176 177/177
v 1.000000 0.000000 0.000000
vt 0.020000 0.020000
v 1.000000 -8.910065 4.539905
vt 0.080000 0.020000
v 1.000000 -9.510565 3.090170
vt 0.080000 0.080000
f 178/178 179/179 180/180
v -1.000000 -9.510565 3.090170
vt 0.020000 0.020000
v -1.000000 -9.876883 1.564345
vt 0.080000 0.020000
v 1.000000 -9.876883 1.564345
vt 0.080000 0.080000
v 1.000000 -9.510565 3.090170
vt 0.020000 0.080000
f 181/181 182/182 183/183 184/184
v -1.000000 0.000000 0.000000
vt 0.020000 0.020000
v -1.000000 -9.876883 1.564345
vt 0.080000 0.020000
v -1.000000 -9.510565 3.090170
vt 0.080000 0.080000
f 185/185 186/186 187/187
v 1.000000 0.000000 0.000000
vt 0.020000 0.020000
v 1.000000 -9.510565 3.090170
vt 0.080000 0.020000
v 1.000000 -9.876883 1.564345
vt 0.080000 0.080000
f 188/188 189/189 190/190
v -1.000000 -9.876883 1.564345
vt 0.020000 0.020000
v -1.000000 -10.000000 0.000000
vt 0.080000 0.020000
v 1.000000 -10.000000 0.000000
vt 0.080000 0.080000
v 1.000000 -9.876883 1.564345
vt 0.020000 0.080000
f 191/191 192/192 193/193 194/194
v -1.000000 0.000000 0.000000
vt 0.020000 0.020000
v -1.000000 -10.000000 0.000000
vt 0.080000 0.020000
v -1.000000 -9.876883 1.564345
vt 0.080000 0.080000
f 195/195 196/196 197/197
v 1.000000 0.000000 0.000000
vt 0.020000 0.020000
v 1.000000 -9.876883 1.564345
vt 0.080000 0.020000
v 1.000000 -10.000000 0.000000
vt 0.080000 0.080000
f 198/198 199/199 200/200
v -1.000000 -10.000000 0.000000
vt 0.020000 0.020000
v -1.000000 -9.876883 -1.564345
vt 0.080000 0.020000
v 1.000000 -9.876883 -1.564345
vt 0.080000 0.080000
v 1.000000 -10.000000 0.000000
vt 0.020000 0.080000
f 201/201 202/202 203/203 204/204
v -1.000000 0.000000 0.000000
vt 0.020000 0.020000
v -1.000000 -9.876883 -1.564345
vt 0.080000 0.020000
v -1.000000 -10.000000 0.000000
vt 0.080000 0.080000
f 205/205 206/206 207/207
v 1.000000 0.000000 0.000000
vt 0.020000 0.020000
v 1.000000 -10.000000 0.000000
vt 0.080000 0.020000
v 1.000000 -9.876883 -1.564345
vt 0.080000 0.080000
f 208/208 209/209 210/210
v -1.000000 -9.876883 -1.564345
vt 0.020000 0.020000
v -1.000000 -9.510565 -3.090170
vt 0.080000 0.020000
v 1.000000 -9.510565 -3.090170
vt 0.080000 0.080000
v 1.000000 -9.876883 -1.564345
vt 0.020000 0.080000
f 211/211 212/212 213/213 214/214
v -1.000000 0.000000 0.000000
vt 0.020000 0.020000
v -1.000000 -9.510565 -3.090170
vt 0.080000 0.020000
v -1.000000 -9.876883 -1.564345
vt 0.080000 0.080000
f 215/215 216/216 217/217
v 1.000000 0.000000 0.000000
vt 0.020000 0.020000
v 1.000000 -9.876883 -1.564345
vt 0.080000 0.020000
v 1.000000 -9.510565 -3.090170
vt 0.080000 0.080000
f 218/218 219/219 220/220
v -1.000000 -9.510565 -3.090170
vt 0.020000 0.020000
v -1.000000 -8.910065 -4.539905
vt 0.080000 0.020000
v 1.000000 -8.910065 -4.539905
vt 0.080000 0.080000
v 1.000000 -9.510565 -3.090170
vt 0.020000 0.080000
f 221/221 222/222 223/223 224/224
v -1.000000 0.000000 0.000000
vt 0.020000 0.020000
v -1.000000 -8.910065 -4.539905
vt 0.080000 0.020000
v -1.000000 -9.510565 -3.090170
vt 0.080000 0.080000
f 225/225 226/226 227/227
v 1.000000 0.000000 0.000000
vt 0.020000 0.020000
v 1.000000 -9.510565 -3.090170
vt 0.080000 0.020000
v 1.000000 -8.910065 -4.539905
vt 0.080000 0.080000
f 228/228 229/229 230/230
v -1.000000 -8.910065 -4.539905
vt 0.020000 0.020000
v -1.000000 -8.090170 -5.877853
vt 0.080000 0.020000
v 1.000000 -8.090170 -5.877853
vt 0.080000 0.080000
v 1.000000 -8.910065 -4.539905
vt 0.020000 0.080000
f 231/231 232/232 233/233 234/234
v -1.000000 0.000000 0.000000
vt 0.020000 0.020000
v -1.000000 -8.090170 -5.877853
vt 0.080000 0.020000
v -1.000000 -8.910065 -4.539905
vt 0.080000 0.080000
f 235/235 236/236 237/237
v 1.000000 0.000000 0.000000
vt 0.020000 0.020000
v 1.000000 -8.910065 -4.539905
vt 0.080000 0.020000
v 1.000000 -8.090170 -5.877853
vt 0.080000 0.080000
f 238/238 239/239 240/240
v -1.000000 -8.090170 -5.877853
vt 0.020000 0.020000
v -1.000000 -7.071068 -7.071068
vt 0.080000 0.020000
v 1.000000 -7.071068 -7.071068
vt 0.080000 0.080000
v 1.000000 -8.090170 -5.877853
vt 0.020000 0.080000
f 241/241 242/242 243/243 244/244
v -1.000000 0.000000 0.000000
vt 0.020000 0.020000
v -1.000000 -7.071068 -7.071068
vt 0.080000 0.020000
v -1.000000 -8.090170 -5.877853
vt 0.080000 0.080000
f 245/245 246/246 247/247
v 1.000000 0.000000 0.000000
vt 0.020000 0.020000
v 1.000000 -8.090170 -5.877853
vt 0.080000 0.020000
v 1.000000 -7.071068 -7.071068
vt 0.080000 0.080000
f 248/248 249/249 250/250
v -1.000000 -7.071068 -7.071068
vt 0.020000 0.020000
v -1.000000 -5.877853 -8.090170
vt 0.080000 0.020000
v 1.000000 -5.877853 -8.090170
vt 0.080000 0.080000
v 1.000000 -7.071068 -7.071068
vt 0.020000 0.080000
f 251/251 252/252 253/253 254/254
v -1.000000 0.000000 0.000000
vt 0.020000 0.020000
v -1.000000 -5.877853 -8.090170
vt 0.080000 0.020000
v -1.000000 -7.071068 -7.071068
vt 0.080000 0.080000
f 255/255 256/256 257/257
v 1.000000 0.000000 0.000000
vt 0.020000 0.020000
v 1.000000 -7.071068 -7.071068
vt 0.080000 0.020000
v 1.000000 -5.877853 -8.090170
vt 0.080000 0.080000
f 258/258 259/259 260/260
v -1.000000 -5.877853 -8.090170
vt 0.020000 0.020000
v -1.000000 -4.539905 -8.910065
vt 0.080000 0.020000
v 1.000000 -4.539905 -8.910065
vt 0.080000 0.080000
v 1.000000 -5.877853 -8.090170
vt 0.020000 0.080000
f 261/261 262/262 263/263 264/264
v -1.000000 0.000000 0.000000
vt 0.020000 0.020000
v -1.000000 -4.539905 -8.910065
vt 0.080000 0.020000
v -1.000000 -5.877853 -8.090170
vt 0.080000 0.080000
f 265/265 266/266 267/267
v 1.000000 0.000000 0.000000
vt 0.020000 0.020000
v 1.000000 -5.877853 -8.090170
vt 0.080000 0.020000
v 1.000000 -4.539905 -8.910065
vt 0.080000 0.080000
f 268/268 269/269 270/270
v -1.000000 -4.539905 -8.910065
vt 0.020000 0.020000
v -1.000000 -3.090170 -9.510565
vt 0.080000 0.020000
v 1.000000 -3.090170 -9.510565
vt 0.080000 0.080000
v 1.000000 -4.539905 -8.910065
vt 0.020000 0.080000
f 271/271 272/272 273/273 274/274
v -1.000000 0.000000 0.000000
vt 0.020000 0.020000
v -1.000000 -3.090170 -9.510565
vt 0.080000 0.020000
v -1.000000 -4.539905 -8.910065
vt 0.080000 0.080000
f 275/275 276/276 277/277
v 1.000000 0.000000 0.000000
vt 0.020000 0.020000
v 1.000000 -4.539905 -8.910065
vt 0.080000 0.020000
v 1.000000 -3.090170 -9.510565
vt 0.080000 0.080000
f 278/278 279/279 280/280
v -1.000000 -3.090170 -9.510565
vt 0.020000 0.020000
v -1.000000 -1.564345 -9.876883
vt 0.080000 0.020000
v 1.000000 -1.564345 -9.876883
vt 0.080000 0.080000
v 1.000000 -3.090170 -9.510565
vt 0.020000 0.080000
f 281/281 282/282 283/283 284/284
v -1.000000 0.000000 0.000000
vt 0.020000 0.020000
v -1.000000 -1.564345 -9.876883
vt 0.080000 0.020000
v -1.000000 -3.090170 -9.510565
vt 0.080000 0.080000
f 285/285 286/286 287/287
v 1.000000 0.000000 0.000000
vt 0.020000 0.020000
v 1.000000 -3.090170 -9.510565
vt 0.080000 0.020000
v 1.000000 -1.564345 -9.876883
vt 0.080000 0.080000
f 288/288 289/289 290/290
v -1.000000 -1.564345 -9.876883
vt 0.020000 0.020000
v -1.000000 -0.000000 -10.000000
vt 0.080000 0.020000
v 1.000000 -0.000000 -10.000000
vt 0.080000 0.080000
v 1.000000 -1.564345 -9.876883
vt 0.020000 0.080000
f 291/291 292/292 293/293 294/294
v -1.000000 0.000000 0.000000
vt 0.020000 0.020000
v -1.000000 -0.000000 -10.000000
vt 0.080000 0.020000
v -1.000000 -1.564345 -9.876883
vt 0.080000 0.080000
f 295/295 296/296 297/297
v 1.000000 0.000000 0.000000
vt 0.020000 0.020000
v 1.000000 -1.564345 -9.876883
vt 0.080000 0.020000
v 1.000000 -0.000000 -10.000000
vt 0.080000 0.080000
f 298/298 299/299 300/300
v -1.000000 -0.000000 -10.000000
vt 0.020000 0.020000
v -1.000000 1.564345 -9.876883
vt 0.080000 0.020000
v 1.000000 1.564345 -9.876883
vt 0.080000 0.080000
v 1.000000 -0.000000 -10.000000
vt 0.020000 0.080000
f 301/301 302/302 303/303 304/304
v -1.000000 0.000000 0.000000
vt 0.020000 0.020000
v -1.000000 1.564345 -9.876883
vt 0.080000 0.020000
v -1.000000 -0.000000 -10.000000
vt 0.080000 0.080000
f 305/305 306/306 307/307
v 1.000000 0.000000 0.000000
vt 0.020000 0.020000
v 1.000000 -0.000000 -10.000000
vt 0.080000 0.020000
v 1.000000 1.564345 -9.876883
vt 0.080000 0.080000
f 308/308 309/309 310/310
v -1.000000 1.564345 -9.876883
vt 0.020000 0.020000
v -1.000000 3.090170 -9.510565
vt 0.080000 0.020000
v 1.000000 3.090170 -9.510565
vt 0.080000 0.080000
v 1.000000 1.564345 -9.876883
vt 0.020000 0.080000
f 311/311 312/312 313/313 314/314
v -1.000000 0.000000 0.000000
vt 0.020000 0.020000
v -1.000000 3.090170 -9.510565
vt 0.080000 0.020000
v -1.000000 1.564345 -9.876883
vt 0.080000 0.080000
f 315/315 316/316 317/317
v 1.000000 0.000000 0.000000
vt 0.020000 0.020000
v 1.000000 1.564345 -9.876883
vt 0.080000 0.020000
v 1.000000 3.090170 -9.510565
vt 0.080000 0.080000
f 318/318 319/319 320/320
v -1.000000 3.090170 -9.510565
vt 0.020000 0.020000
v -1.000000 4.539905 -8.910065
vt 0.080000 0.020000
v 1.000000 4.539905 -8.910065
vt 0.080000 0.080000
v 1.000000 3.090170 -9.510565
vt 0.020000 0.080000
f 321/321 322/322 323/323 324/324
v -1.000000 0.000000 0.000000
vt 0.020000 0.020000
v -1.000000 4.539905 -8.910065
vt 0.080000 0.020000
v -1.000000 3.090170 -9.510565
vt 0.080000 0.080000
f 325/325 326/326 327/327
v 1.000000 0.000000 0.000000
vt 0.020000 0.020000
v 1.000000 3.090170 -9.510565
vt 0.080000 0.020000
v 1.000000 4.539905 -8.910065
vt 0.080000 0.080000
f 328/328 329/329 330/330
v -1.000000 4.539905 -8.910065
vt 0.020000 0.020000
v -1.000000 5.877853 -8.090170
vt 0.080000 0.020000
v 1.000000 5.877853 -8.090170
vt 0.080000 0.080000
v 1.000000 4.539905 -8.910065
vt 0.020000 0.080000
f 331/331 332/332 333/333 334/334
v -1.000000 0.000000 0.000000
vt 0.020000 0.020000
v -1.000000 5.877853 -8.090170
vt 0.080000 0.020000
v -1.000000 4.539905 -8.910065
vt 0.080000 0.080000
f 335/335 336/336 337/337
v 1.000000 0.000000 0.000000
vt 0.020000 0.020000
v 1.000000 4.539905 -8.910065
vt 0.080000 0.020000
v 1.000000 5.877853 -8.090170
vt 0.080000 0.080000
f 338/338 339/339 340/340
v -1.000000 5.877853 -8.090170
vt 0.020000 0.020000
v -1.000000 7.071068 -7.071068
vt 0.080000 0.020000
v 1.000000 7.071068 -7.071068
vt 0.080000 0.080000
v 1.000000 5.877853 -8.090170
vt 0.020000 0.080000
f 341/341 342/342 343/343 344/344
v -1.000000 0.000000 0.000000
vt 0.020000 0.020000
v -1.000000 7.071068 -7.071068
vt 0.080000 0.020000
v -1.000000 5.877853 -8.090170
vt 0.080000 0.080000
f 345/345 346/346 347/347
v 1.000000 0.000000 0.000000
vt 0.020000 0.020000
v 1.000000 5.877853 -8.090170
vt 0.080000 0.020000
v 1.000000 7.071068 -7.071068
vt 0.080000 0.080000
f 348/348 349/349 350/350
v -1.000000 7.071068 -7.071068
vt 0.020000 0.020000
v -1.000000 8.090170 -5.877853
vt 0.080000 0.020000
v 1.000000 8.090170 -5.877853
vt 0.080000 0.080000
v 1.000000 7.071068 -7.071068
vt 0.020000 0.080000
f 351/351 352/352 353/353 354/354
v -1.000000 0.000000 0.000000
vt 0.020000 0.020000
v -1.000000 8.090170 -5.877853
vt 0.080000 0.020000
v -1.000000 7.071068 -7.071068
vt 0.080000 0.080000
f 355/355 356/356 357/357
v 1.000000 0.000000 0.000000
vt 0.020000 0.020000
v 1.000000 7.071068 -7.071068
vt 0.080000 0.020000
v 1.000000 8.090170 -5.877853
vt 0.080000 0.080000
f 358/358 359/359 360/360
v -1.000000 8.090170 -5.877853
vt 0.020000 0.020000
v -1.000000 8.910065 -4.539905
vt 0.080000 0.020000
v 1.000000 8.910065 -4.539905
vt 0.080000 0.080000
v 1.000000 8.090170 -5.877853
vt 0.020000 0.080000
f 361/361 362/362 363/363 364/364
v -1.000000 0.000000 0.000000
vt 0.020000 0.020000
v -1.000000 8.910065 -4.539905
vt 0.080000 0.020000
v -1.000000 8.090170 -5.877853
vt 0.080000 0.080000
f 365/365 366/366 367/367
v 1.000000 0.000000 0.000000
vt 0.020000 0.020000
v 1.000000 8.090170 -5.877853
vt 0.080000 0.020000
v 1.000000 8.910065 -4.539905
vt 0.080000 0.080000
f 368/368 369/369 370/370
v -1.000000 8.910065 -4.539905
vt 0.020000 0.020000
v -1.000000 9.510565 -3.090170
vt 0.080000 0.020000
v 1.000000 9.510565 -3.090170
vt 0.080000 0.080000
v 1.000000 8.910065 -4.539905
vt 0.020000 0.080000
f 371/371 372/372 373/373 374/374
v -1.000000 0.000000 0.000000
vt 0.020000 0.020000
v -1.000000 9.510565 -3.090170
vt 0.080000 0.020000
v -1.000000 8.910065 -4.539905
vt 0.080000 0.080000
f 375/375 376/376 377/377
v 1.000000 0.000000 0.000000
vt 0.020000 0.020000
v 1.000000 8.910065 -4.539905
vt 0.080000 0.020000
v 1.000000 9.510565 -3.090170
vt 0.080000 0.080000
f 378/378 379/379 380/380
v -1.000000 9.510565 -3.090170
vt 0.020000 0.020000
v -1.000000 9.876883 -1.564345
vt 0.080000 0.020000
v 1.000000 9.876883 -1.564345
vt 0.080000 0.080000
v 1.000000 9.510565 -3.090170
vt 0.020000 0.080000
f 381/381 382/382 383/383 384/384
v -1.000000 0.000000 0.000000
vt 0.020000 0.020000
v -1.000000 9.876883 -1.564345
vt 0.080000 0.020000
v -1.000000 9.510565 -3.090170
vt 0.080000 0.080000
f 385/385 386/386 387/387
v 1.000000 0.000000 0.000000
vt 0.020000 0.020000
v 1.000000 9.510565 -3.090170
vt 0.080000 0.020000
v 1.000000 9.876883 -1.564345
vt 0.080000 0.080000
f 388/388 389/389 390/390
v -1.000000 9.876883 -1.564345
vt 0.020000 0.020000
v -1.000000 10.000000 -0.000000
vt 0.080000 0.020000
v 1.000000 10.000000 -0.000000
vt 0.080000 0.080000
v 1.000000 9.876883 -1.564345
vt 0.020000 0.080000
f 391/391 392/392 393/393 394/394
v -1.000000 0.000000 0.000000
vt 0.020000 0.020000
v -1.000000 10.000000 -0.000000
vt 0.080000 0.020000
v -1.000000 9.876883 -1.564345
vt 0.080000 0.080000
f 395/395 396/396 397/397
v 1.000000 0.000000 0.000000
vt 0.020000 0.020000
v 1.000000 9.876883 -1.564345
vt 0.080000 0.020000
v 1.000000 10.000000 -0.000000
vt 0.080000 0.080000
f 398/398 399/399 400/400
v 1.550000 -1.000000 -5.000000
vt 0.020000 0.020000
v 1.550000 1.000000 -5.000000
vt 0.080000 0.020000
v 1.550000 1.000000 5.000000
vt 0.080000 0.080000
v 1.550000 -1.000000 5.000000
vt 0.020000 0.080000
f 401/401 402/402 403/403 404/404
v 0.950000 1.000000 -5.000000
vt 0.020000 0.020000
v 0.950000 -1.000000 -5.000000
vt 0.080000 0.020000
v 0.950000 -1.000000 5.000000
vt 0.080000 0.080000
v 0.950000 1.000000 5.000000
vt 0.020000 0.080000
f 405/405 406/406 407/407 408/408
v 0.950000 -1.000000 -5.000000
vt 0.020000 0.020000
v 1.550000 -1.000000 -5.000000
vt 0.080000 0.020000
v 1.550000 -1.000000 5.000000
vt 0.080000 0.080000
v 0.950000 -1.000000 5.000000
vt 0.020000 0.080000
f 409/409 410/410 411/411 412/412
v 1.550000 1.000000 -5.000000
vt 0.020000 0.020000
v 0.950000 1.000000 -5.000000
vt 0.080000 0.020000
v 0.950000 1.000000 5.000000
vt 0.080000 0.080000
v 1.550000 1.000000 5.000000
vt 0.020000 0.080000
f 413/413 414/414 415/415 416/416
v 0.950000 -1.000000 5.000000
vt 0.020000 0.020000
v 1.550000 -1.000000 5.000000
vt 0.080000 0.020000
v 1.550000 1.000000 5.000000
vt 0.080000 0.080000
v 0.950000 1.000000 5.000000
vt 0.020000 0.080000
f 417/417 418/418 419/419 420/420
v 0.950000 1.000000 -5.000000
vt 0.020000 0.020000
v 1.550000 1.000000 -5.000000
vt 0.080000 0.020000
v 1.550000 -1.000000 -5.000000
vt 0.080000 0.080000
v 0.950000 -1.000000 -5.000000
vt 0.020000 0.080000
f 421/421 422/422 423/423 424/424
